<svg width="16" height="14" viewBox="0 0 16 14" fill="none" xmlns="http://www.w3.org/2000/svg">
<path opacity="0.5" d="M13.6 2H2.4C1.76348 2 1.15303 2.27656 0.702944 2.76884C0.252856 3.26113 0 3.92881 0 4.625V7.005L5.4696 9H10.5304L16 7.005V4.625C16 3.92881 15.7471 3.26113 15.2971 2.76884C14.847 2.27656 14.2365 2 13.6 2Z" fill="#E4E4E4"/>
<path d="M6.4 2.33333V1.55556H9.6V2.33333H11.2V1.55556C11.1996 1.14312 11.0309 0.747701 10.7309 0.456066C10.4309 0.164432 10.0242 0.000411815 9.6 0H6.4C5.97578 0.000411815 5.56906 0.164432 5.2691 0.456066C4.96913 0.747701 4.80042 1.14312 4.8 1.55556V2.33333H6.4ZM5.4696 8.55556L0 6.78222V11.6667C0.000635372 12.2853 0.253696 12.8784 0.703646 13.3159C1.1536 13.7534 1.76368 13.9994 2.4 14H13.6C14.2363 13.9994 14.8464 13.7534 15.2964 13.3159C15.7463 12.8784 15.9994 12.2853 16 11.6667V6.78222L10.5304 8.55556H5.4696Z" fill="#E4E4E4"/>
</svg>
