<svg width="41" height="40" viewBox="0 0 41 40" fill="none" xmlns="http://www.w3.org/2000/svg">
<path d="M23.705 23.3525C23.5325 23.5075 23.28 23.735 23.28 24.125C23.28 24.53 23.5475 24.9375 24.03 25.265C26.2225 26.7975 30.3325 26.615 30.51 26.61H30.515C32.1825 26.61 33.815 26.16 35.25 25.3125C36.6933 24.4682 37.8908 23.2613 38.724 21.8116C39.5572 20.3619 39.997 18.7196 40 17.0475C40.045 13.7575 38.9 11.5025 38.335 10.3875L38.235 10.1875C34.9075 3.7175 27.765 0 20 0C15.8837 5.84462e-06 11.8677 1.27009 8.50001 3.63694C5.13228 6.00379 2.57688 9.35211 1.1825 13.225C3.71999 10.12 7.95749 8.155 12.5 8.155C19.575 8.155 25.025 12.8675 25.025 20.1475H25.015V20.1525C25.015 20.9975 24.595 22.2325 23.7975 23.2625L23.8125 23.2475C23.7784 23.2834 23.7425 23.3201 23.705 23.3525Z" fill="#42455E"/>
<path d="M0.0250006 19.3825C-0.0584012 22.5213 0.585917 25.6367 1.9075 28.485C3.38722 31.6353 5.66346 34.3449 8.51121 36.346C11.359 38.3471 14.6796 39.5704 18.145 39.895C17.4657 39.6361 16.8092 39.3209 16.1825 38.9525H16.1575L15.8575 38.765C14.3287 37.8153 13.0032 36.5723 11.9575 35.1075C10.7644 33.4746 9.94321 31.6004 9.55147 29.6165C9.15973 27.6325 9.20697 25.5868 9.68988 23.623C10.1728 21.6593 11.0796 19.825 12.3468 18.2489C13.614 16.6729 15.2107 15.3933 17.025 14.5L17.05 14.49L17.1125 14.46C17.6325 14.215 18.6625 13.73 20.03 13.7475C20.3525 13.75 20.6725 13.7775 20.99 13.83C20.2552 13.1265 19.4182 12.5382 18.5075 12.085L18.4825 12.0725C15.87 10.705 12.9975 10.6575 12.5 10.6575C6.4 10.6575 0.440001 14.7425 0.0250006 19.3825ZM25.6825 39.1625C25.9025 39.095 26.125 39.0275 26.345 38.9525C26.09 39.0325 25.835 39.1025 25.5775 39.1675L25.6825 39.1625Z" fill="#42455E"/>
<path d="M25.57 39.1675C25.8246 39.1035 26.0772 39.0318 26.3275 38.9525L26.5325 38.89C30.8373 37.4019 34.5071 34.4922 36.9375 30.64C37.008 30.523 37.0382 30.3862 37.0235 30.2504C37.0088 30.1146 36.9501 29.9873 36.8562 29.8881C36.7624 29.7889 36.6386 29.7231 36.5038 29.7009C36.3691 29.6787 36.2308 29.7012 36.11 29.765C35.5725 30.045 35.02 30.29 34.4525 30.5C32.6587 31.1678 30.7591 31.5065 28.845 31.5C21.4525 31.5 15.015 26.4225 15.015 19.89C15.02 19.5525 15.0575 19.22 15.13 18.8925C13.209 20.8079 12.037 23.3476 11.826 26.0522C11.6151 28.7567 12.3792 31.4475 13.98 33.6375L13.9875 33.65C14.775 34.7525 15.755 35.7025 16.8825 36.4525H16.89L17.25 36.6775C19.4425 38.0525 21.5525 39.3725 25.57 39.1675Z" fill="#42455E"/>
</svg>
