<svg width="17" height="16" viewBox="0 0 17 16" fill="none" xmlns="http://www.w3.org/2000/svg">
<path d="M9.39401 0.0800045C9.26951 0.0266347 9.13546 -0.00088501 9.00001 -0.00088501C8.86455 -0.00088501 8.73051 0.0266347 8.60601 0.0800045L1.60601 3.08C1.42562 3.15685 1.2718 3.28503 1.16368 3.44861C1.05557 3.61218 0.997925 3.80393 0.997925 4C0.997925 4.19608 1.05557 4.38783 1.16368 4.5514C1.2718 4.71498 1.42562 4.84316 1.60601 4.92L4.25001 6.051C4.34815 5.94 4.46975 5.85221 4.60601 5.794L8.60601 4.08C8.72705 4.02606 8.85761 3.9967 8.99009 3.99365C9.12258 3.99061 9.25435 4.01392 9.37775 4.06224C9.50114 4.11057 9.6137 4.18293 9.70889 4.27514C9.80407 4.36735 9.87998 4.47755 9.93219 4.59935C9.98441 4.72115 10.0119 4.85211 10.0131 4.98463C10.0142 5.11714 9.98904 5.24857 9.93896 5.37126C9.88888 5.49396 9.81492 5.60548 9.72137 5.69934C9.62781 5.7932 9.51654 5.86753 9.39401 5.918L6.66701 7.08801L8.60701 7.919C8.73137 7.97223 8.86523 7.99968 9.00051 7.99968C9.13578 7.99968 9.26965 7.97223 9.39401 7.919L16.394 4.919C16.5738 4.84187 16.727 4.71369 16.8347 4.55034C16.9424 4.38699 16.9997 4.19565 16.9997 4C16.9997 3.80436 16.9424 3.61302 16.8347 3.44967C16.727 3.28632 16.5738 3.15814 16.394 3.081L9.39401 0.0810046V0.0800045ZM2.31001 7.39701L4.00001 8.12V12.222C3.65376 12.1433 3.30314 12.0852 2.95001 12.048C2.72215 12.0241 2.50943 11.9226 2.34742 11.7606C2.18542 11.5986 2.08395 11.3859 2.06001 11.158C1.9285 9.89892 2.01305 8.62662 2.31001 7.396V7.39701ZM8.30001 14.573C7.62402 13.9097 6.84786 13.357 6.00001 12.935V8.978L7.81801 9.75801C8.1915 9.91811 8.59364 10.0007 9.00001 10.0007C9.40638 10.0007 9.80851 9.91811 10.182 9.75801L15.69 7.39701C15.9887 8.62735 16.0733 9.89995 15.94 11.159C15.9161 11.3869 15.8146 11.5996 15.6526 11.7616C15.4906 11.9236 15.2779 12.0251 15.05 12.049C13.0325 12.261 11.1465 13.1508 9.70001 14.573C9.51308 14.7562 9.26176 14.8589 9.00001 14.8589C8.73825 14.8589 8.48694 14.7562 8.30001 14.573ZM5.00001 16C5.26522 16 5.51958 15.8946 5.70711 15.7071C5.89465 15.5196 6.00001 15.2652 6.00001 15V12.935C5.364 12.619 4.6926 12.379 4.00001 12.222V15C4.00001 15.2652 4.10536 15.5196 4.2929 15.7071C4.48044 15.8946 4.73479 16 5.00001 16Z" fill="#CFCFCF"/>
</svg>
