<svg width="48" height="38" viewBox="0 0 48 38" fill="none" xmlns="http://www.w3.org/2000/svg">
<path d="M40.5167 4.95599L41.1797 4.5H40.375H7.125H6.32027L6.98334 4.95599L22.4208 15.5722L22.429 15.5778L22.4375 15.5828C22.8366 15.8131 23.2892 15.9344 23.75 15.9344C24.2108 15.9344 24.6634 15.8131 25.0625 15.5828L25.071 15.5778L25.0792 15.5722L40.5167 4.95599ZM7.125 0.25H40.375C42.1984 0.25 43.947 0.974328 45.2364 2.26364C46.5257 3.55295 47.25 5.30164 47.25 7.125V30.875C47.25 32.6984 46.5257 34.447 45.2364 35.7364C43.947 37.0257 42.1984 37.75 40.375 37.75H7.125C5.30164 37.75 3.55295 37.0257 2.26364 35.7364C0.974328 34.447 0.25 32.6984 0.25 30.875V7.125C0.25 5.30164 0.974328 3.55295 2.26364 2.26364C3.55295 0.974328 5.30164 0.25 7.125 0.25Z" fill="#42455E" stroke="#42455E" stroke-width="0.5"/>
</svg>
