<svg width="40" height="40" viewBox="0 0 40 40" fill="none" xmlns="http://www.w3.org/2000/svg">
<path d="M1.93377 13.3L1.93387 13.2999L16.9338 1.3102C17.7901 0.626436 18.8761 0.25 20 0.25C21.1239 0.25 22.2099 0.626436 23.0662 1.3102L38.0662 13.2978L38.0662 13.2979C38.5949 13.7199 39.0187 14.2455 39.3092 14.8371C39.5996 15.4286 39.7499 16.0725 39.75 16.7236V36.3157C39.75 37.222 39.3701 38.0942 38.689 38.7394C38.0075 39.3851 37.0804 39.75 36.1111 39.75H29.4444C27.4229 39.75 25.8056 38.1988 25.8056 36.3157V27.8882C25.8056 27.8882 25.8056 27.8882 25.8056 27.8881C25.8058 27.1325 25.4945 26.4094 24.9424 25.8722C24.3908 25.3354 23.6423 25.0262 22.8574 25.0066L22.8574 25.0065H22.8511H17.1489V25.0064L17.1426 25.0066C15.52 25.0476 14.1944 26.3082 14.1944 27.8881V36.3157C14.1944 37.222 13.8145 38.0942 13.1335 38.7394C12.452 39.3851 11.5249 39.75 10.5556 39.75H3.88889C1.86739 39.75 0.25 38.1988 0.25 36.3157V16.7258C0.25 16.7258 0.25 16.7258 0.25 16.7257C0.250151 16.0745 0.400395 15.4307 0.690808 14.8392C0.981258 14.2476 1.40515 13.722 1.93377 13.3Z" fill="#42455E" stroke="#42455E" stroke-width="0.5"/>
</svg>
