<svg width="20" height="20" viewBox="0 0 20 20" fill="none" xmlns="http://www.w3.org/2000/svg">
<path d="M11.028 0.0012304C11.7577 -0.00156983 12.4874 0.00576429 13.217 0.0232305L13.411 0.0302304C13.635 0.0382304 13.856 0.0482304 14.123 0.0602304C15.187 0.11023 15.913 0.278231 16.55 0.525231C17.21 0.779231 17.766 1.12323 18.322 1.67923C18.8303 2.17884 19.2238 2.78318 19.475 3.45023C19.722 4.08723 19.89 4.81423 19.94 5.87823C19.952 6.14423 19.962 6.36623 19.97 6.59023L19.976 6.78423C19.9937 7.51342 20.0014 8.24283 19.999 8.97223L20 9.71823V11.0282C20.0024 11.758 19.9948 12.4877 19.977 13.2172L19.971 13.4112C19.963 13.6352 19.953 13.8562 19.941 14.1232C19.891 15.1872 19.721 15.9132 19.475 16.5502C19.2246 17.218 18.8311 17.8228 18.322 18.3222C17.8219 18.8306 17.2173 19.224 16.55 19.4752C15.913 19.7222 15.187 19.8902 14.123 19.9402C13.856 19.9522 13.635 19.9622 13.411 19.9702L13.217 19.9762C12.4874 19.994 11.7577 20.0017 11.028 19.9992L10.282 20.0002H8.97297C8.24323 20.0027 7.51349 19.995 6.78397 19.9772L6.58997 19.9712C6.35258 19.9626 6.11524 19.9526 5.87797 19.9412C4.81397 19.8912 4.08797 19.7212 3.44997 19.4752C2.78265 19.2246 2.1782 18.8311 1.67897 18.3222C1.17001 17.8225 0.776191 17.2178 0.524967 16.5502C0.277967 15.9132 0.109967 15.1872 0.0599666 14.1232C0.0488295 13.8859 0.0388294 13.6486 0.0299666 13.4112L0.0249667 13.2172C0.00653033 12.4877 -0.0018039 11.758 -3.33508e-05 11.0282V8.97223C-0.00282432 8.24283 0.0045098 7.51343 0.0219667 6.78423L0.0289667 6.59023C0.0369667 6.36623 0.0469667 6.14423 0.0589667 5.87823C0.108967 4.81323 0.276967 4.08823 0.523967 3.45023C0.775339 2.78285 1.16993 2.17868 1.67997 1.68023C2.17886 1.17098 2.78293 0.776803 3.44997 0.525231C4.08797 0.278231 4.81297 0.11023 5.87797 0.0602304L6.58997 0.0302304L6.78397 0.0252306C7.51315 0.00680338 8.24255 -0.00153085 8.97197 0.000230468L11.028 0.0012304ZM9.99997 5.00123C9.33747 4.99186 8.67972 5.11425 8.06494 5.3613C7.45016 5.60834 6.89061 5.97511 6.41881 6.44029C5.94701 6.90546 5.57237 7.45977 5.31665 8.07099C5.06094 8.68222 4.92926 9.33817 4.92926 10.0007C4.92926 10.6633 5.06094 11.3192 5.31665 11.9305C5.57237 12.5417 5.94701 13.096 6.41881 13.5612C6.89061 14.0264 7.45016 14.3931 8.06494 14.6402C8.67972 14.8872 9.33747 15.0096 9.99997 15.0002C11.326 15.0002 12.5978 14.4734 13.5355 13.5358C14.4732 12.5981 15 11.3263 15 10.0002C15 8.67415 14.4732 7.40238 13.5355 6.4647C12.5978 5.52701 11.326 5.00123 9.99997 5.00123ZM9.99997 7.00123C10.3985 6.99389 10.7944 7.06603 11.1648 7.21344C11.5351 7.36085 11.8723 7.58057 12.1567 7.85978C12.4412 8.13898 12.6671 8.47206 12.8214 8.83957C12.9757 9.20708 13.0552 9.60165 13.0552 10.0002C13.0553 10.3988 12.9759 10.7934 12.8218 11.1609C12.6677 11.5285 12.4418 11.8617 12.1575 12.141C11.8731 12.4203 11.536 12.6401 11.1657 12.7876C10.7954 12.9352 10.3995 13.0074 10.001 13.0002C9.20532 13.0002 8.44226 12.6842 7.87965 12.1216C7.31704 11.5589 7.00097 10.7959 7.00097 10.0002C7.00097 9.20458 7.31704 8.44152 7.87965 7.87891C8.44226 7.3163 9.20532 7.00023 10.001 7.00023L9.99997 7.00123ZM15.25 3.50123C14.9274 3.51414 14.6223 3.65138 14.3986 3.8842C14.1749 4.11702 14.05 4.42736 14.05 4.75023C14.05 5.0731 14.1749 5.38344 14.3986 5.61626C14.6223 5.84908 14.9274 5.98632 15.25 5.99923C15.5815 5.99923 15.8994 5.86753 16.1339 5.63311C16.3683 5.39869 16.5 5.08075 16.5 4.74923C16.5 4.41771 16.3683 4.09977 16.1339 3.86535C15.8994 3.63093 15.5815 3.49923 15.25 3.49923V3.50123Z" fill="black"/>
</svg>
