<svg width="16" height="15" viewBox="0 0 16 15" fill="none" xmlns="http://www.w3.org/2000/svg">
<path opacity="0.5" fill-rule="evenodd" clip-rule="evenodd" d="M0.9376 0.976667C-9.53674e-08 1.9525 0 3.52417 0 6.66667V8.33333C0 11.4758 -9.53674e-08 13.0475 0.9376 14.0233C1.8744 15 3.3832 15 6.4 15H10.4V0H6.4C3.3832 0 1.8744 -9.93411e-08 0.9376 0.976667Z" fill="#F0F0F0"/>
<path d="M16 8.33334V6.66667C16 3.52417 16 1.9525 15.0624 0.976671C14.2832 0.164171 12.5088 0.0275049 10.4 0.00500488V14.995C12.5088 14.9725 14.2832 14.8358 15.0624 14.0233C16 13.0475 16 11.4758 16 8.33334ZM5.81039 8.58167C5.95944 8.6397 6.08025 8.75702 6.14626 8.90782C6.21228 9.05863 6.21808 9.23058 6.16239 9.38584L4.96239 12.7192C4.90659 12.8744 4.79387 13.0002 4.64901 13.0689C4.50416 13.1376 4.33905 13.1435 4.18999 13.0854C4.04094 13.0273 3.92016 12.9099 3.85423 12.759C3.78829 12.6081 3.78259 12.4361 3.83839 12.2808L5.03839 8.94751C5.0941 8.79225 5.20673 8.6664 5.3515 8.59764C5.49628 8.52888 5.66134 8.52367 5.81039 8.58167ZM3.62399 8.72501C3.73635 8.84219 3.79947 9.00105 3.79947 9.16667C3.79947 9.3323 3.73635 9.49115 3.62399 9.60834L3.24799 10L3.62399 10.3917C3.72998 10.5102 3.78768 10.6669 3.78493 10.8288C3.78219 10.9907 3.71922 11.1452 3.60929 11.2597C3.49936 11.3742 3.35105 11.4398 3.19561 11.4426C3.04017 11.4455 2.88973 11.3854 2.77599 11.275L1.97599 10.4417C1.86363 10.3245 1.80052 10.1656 1.80052 10C1.80052 9.83438 1.86363 9.67553 1.97599 9.55834L2.77599 8.72501C2.88849 8.60796 3.04099 8.54222 3.19999 8.54222C3.35899 8.54222 3.51149 8.60796 3.62399 8.72501ZM6.37599 10.3917C6.4885 10.2746 6.64099 10.2089 6.79999 10.2089C6.959 10.2089 7.11149 10.2746 7.22399 10.3917L8.02399 11.225C8.13636 11.3422 8.19947 11.501 8.19947 11.6667C8.19947 11.8323 8.13636 11.9912 8.02399 12.1083L7.22399 12.9417C7.16906 13.0031 7.10282 13.0523 7.02923 13.0865C6.95563 13.1206 6.87617 13.139 6.79561 13.1405C6.71505 13.142 6.63503 13.1265 6.56032 13.0951C6.48561 13.0637 6.41774 13.0169 6.36076 12.9575C6.30379 12.8982 6.25887 12.8275 6.2287 12.7497C6.19852 12.6718 6.1837 12.5885 6.18512 12.5046C6.18654 12.4207 6.20418 12.3379 6.23697 12.2612C6.26976 12.1846 6.31705 12.1156 6.37599 12.0583L6.75199 11.6667L6.37599 11.275C6.26363 11.1578 6.20052 10.999 6.20052 10.8333C6.20052 10.6677 6.26363 10.5089 6.37599 10.3917Z" fill="#F0F0F0"/>
</svg>
