<svg width="16" height="18" viewBox="0 0 16 18" fill="none" xmlns="http://www.w3.org/2000/svg">
<path opacity="0.5" d="M0 7.2C0 3.8061 -1.05964e-07 2.1087 1.04178 1.0548C2.08267 -1.07288e-07 3.75911 0 7.11111 0H8.88889C12.2409 0 13.9173 -1.07288e-07 14.9582 1.0548C16 2.1087 16 3.8061 16 7.2V10.8C16 14.1939 16 15.8913 14.9582 16.9452C13.9173 18 12.2409 18 8.88889 18H7.11111C3.75911 18 2.08267 18 1.04178 16.9452C-1.05964e-07 15.8913 0 14.1939 0 10.8V7.2Z" fill="#CFCFCF"/>
<path fill-rule="evenodd" clip-rule="evenodd" d="M3.77777 7.2C3.77777 7.02098 3.84801 6.84929 3.97303 6.7227C4.09806 6.59612 4.26763 6.525 4.44444 6.525H11.5555C11.7324 6.525 11.9019 6.59612 12.027 6.7227C12.152 6.84929 12.2222 7.02098 12.2222 7.2C12.2222 7.37902 12.152 7.55071 12.027 7.6773C11.9019 7.80389 11.7324 7.875 11.5555 7.875H4.44444C4.26763 7.875 4.09806 7.80389 3.97303 7.6773C3.84801 7.55071 3.77777 7.37902 3.77777 7.2ZM3.77777 10.8C3.77777 10.621 3.84801 10.4493 3.97303 10.3227C4.09806 10.1961 4.26763 10.125 4.44444 10.125H8.88888C9.06569 10.125 9.23526 10.1961 9.36029 10.3227C9.48531 10.4493 9.55555 10.621 9.55555 10.8C9.55555 10.979 9.48531 11.1507 9.36029 11.2773C9.23526 11.4039 9.06569 11.475 8.88888 11.475H4.44444C4.26763 11.475 4.09806 11.4039 3.97303 11.2773C3.84801 11.1507 3.77777 10.979 3.77777 10.8Z" fill="#CFCFCF"/>
</svg>
