<svg width="34" height="38" viewBox="0 0 34 38" fill="none" xmlns="http://www.w3.org/2000/svg">
<path d="M3.25 2.5C2.58696 2.5 1.95107 2.76339 1.48223 3.23223C1.01339 3.70107 0.75 4.33696 0.75 5V7.5C0.75 8.16304 1.01339 8.79893 1.48223 9.26777C1.95107 9.73661 2.58696 10 3.25 10H4.5V32.5C4.5 33.8261 5.02678 35.0979 5.96447 36.0355C6.90215 36.9732 8.17392 37.5 9.5 37.5H24.5C25.8261 37.5 27.0979 36.9732 28.0355 36.0355C28.9732 35.0979 29.5 33.8261 29.5 32.5V10H30.75C31.413 10 32.0489 9.73661 32.5178 9.26777C32.9866 8.79893 33.25 8.16304 33.25 7.5V5C33.25 4.33696 32.9866 3.70107 32.5178 3.23223C32.0489 2.76339 31.413 2.5 30.75 2.5H22C22 1.83696 21.7366 1.20107 21.2678 0.732233C20.7989 0.263392 20.163 0 19.5 0L14.5 0C13.837 0 13.2011 0.263392 12.7322 0.732233C12.2634 1.20107 12 1.83696 12 2.5H3.25ZM10.75 12.5C11.0815 12.5 11.3995 12.6317 11.6339 12.8661C11.8683 13.1005 12 13.4185 12 13.75V31.25C12 31.5815 11.8683 31.8995 11.6339 32.1339C11.3995 32.3683 11.0815 32.5 10.75 32.5C10.4185 32.5 10.1005 32.3683 9.86612 32.1339C9.6317 31.8995 9.5 31.5815 9.5 31.25V13.75C9.5 13.4185 9.6317 13.1005 9.86612 12.8661C10.1005 12.6317 10.4185 12.5 10.75 12.5ZM17 12.5C17.3315 12.5 17.6495 12.6317 17.8839 12.8661C18.1183 13.1005 18.25 13.4185 18.25 13.75V31.25C18.25 31.5815 18.1183 31.8995 17.8839 32.1339C17.6495 32.3683 17.3315 32.5 17 32.5C16.6685 32.5 16.3505 32.3683 16.1161 32.1339C15.8817 31.8995 15.75 31.5815 15.75 31.25V13.75C15.75 13.4185 15.8817 13.1005 16.1161 12.8661C16.3505 12.6317 16.6685 12.5 17 12.5ZM24.5 13.75V31.25C24.5 31.5815 24.3683 31.8995 24.1339 32.1339C23.8995 32.3683 23.5815 32.5 23.25 32.5C22.9185 32.5 22.6005 32.3683 22.3661 32.1339C22.1317 31.8995 22 31.5815 22 31.25V13.75C22 13.4185 22.1317 13.1005 22.3661 12.8661C22.6005 12.6317 22.9185 12.5 23.25 12.5C23.5815 12.5 23.8995 12.6317 24.1339 12.8661C24.3683 13.1005 24.5 13.4185 24.5 13.75Z" fill="#42455E"/>
</svg>
